<?xml version="1.0" encoding="UTF-8"?>
<!-- Generated by Pixelmator Pro 2.4.2 -->
<svg width="24" height="24" viewBox="0 0 24 24" xmlns="http://www.w3.org/2000/svg" xmlns:xlink="http://www.w3.org/1999/xlink">
    <path id="Path" fill="#ffffff" stroke="none" d="M 10 20 L 14 20 C 14 21.1 13.1 22 12 22 C 10.9 22 10 21.1 10 20 Z M 20 17.35 L 20 19 L 4 19 L 4 17.35 L 6 15.47 L 6 10.32 C 6 7.4 7.56 5.1 10 4.34 L 10 3.959999 C 10 2.540001 11.49 1.459999 12.99 2.200001 C 13.64 2.52 14 3.23 14 3.959999 L 14 4.35 C 16.440001 5.1 18 7.41 18 10.33 L 18 15.48 L 20 17.35 Z M 19 17.77 L 17 15.89 L 17 10.42 C 17 7.950001 15.81 6.059999 13.87 5.32 C 12.61 4.790001 11.23 4.82 10.03 5.35 C 8.15 6.110001 7 7.99 7 10.42 L 7 15.89 L 5 17.77 L 5 18 L 19 18 L 19 17.77 Z"/>
</svg>
