<?xml version="1.0" encoding="UTF-8"?>
<!-- Generated by Pixelmator Pro 2.4.2 -->
<svg width="24" height="24" viewBox="0 0 24 24" xmlns="http://www.w3.org/2000/svg" xmlns:xlink="http://www.w3.org/1999/xlink">
    <path id="Path" fill="#ffffff" stroke="none" d="M 12 3 C 10.34 3 9 4.369999 9 6.07 L 9 11.93 C 9 13.63 10.34 15 12 15 C 13.66 15 15 13.63 15 11.93 L 15 6.07 C 15 4.369999 13.66 3 12 3 Z M 18.5 12 L 17.5 12 C 17.5 15.03 15.03 17.5 12 17.5 C 8.97 17.5 6.5 15.03 6.5 12 L 5.5 12 C 5.5 15.24 7.89 17.93 11 18.41 L 11 21 L 13 21 L 13 18.41 C 16.110001 17.93 18.5 15.24 18.5 12 Z"/>
</svg>
