<?xml version="1.0" encoding="UTF-8"?>
<!-- Generated by Pixelmator Pro 2.4.2 -->
<svg width="24" height="24" viewBox="0 0 24 24" xmlns="http://www.w3.org/2000/svg" xmlns:xlink="http://www.w3.org/1999/xlink">
    <path id="Path" fill="#ffffff" stroke="none" d="M 20.870001 20.17 L 15.28 14.58 C 16.35 13.35 17 11.75 17 10 C 17 6.130001 13.87 3 10 3 C 6.13 3 3 6.130001 3 10 C 3 13.87 6.13 17 10 17 C 11.75 17 13.35 16.35 14.58 15.29 L 20.17 20.879999 L 20.870001 20.17 Z M 10 16 C 6.69 16 4 13.31 4 10 C 4 6.690001 6.69 4 10 4 C 13.31 4 16 6.690001 16 10 C 16 13.31 13.31 16 10 16 Z"/>
</svg>
