<?xml version="1.0" encoding="UTF-8"?>
<!-- Generated by Pixelmator Pro 2.4.2 -->
<svg width="24" height="24" viewBox="0 0 24 24" xmlns="http://www.w3.org/2000/svg" xmlns:xlink="http://www.w3.org/1999/xlink">
    <path id="Path" fill="#929292" stroke="none" d="M 10 14.65 L 10 9.35 L 15 12 L 10 14.65 Z M 17.77 10.32 L 16.57 9.82 L 18 9.06 C 19.84 8.1 20.530001 5.83 19.559999 4 C 18.59 2.17 16.32 1.469999 14.49 2.440001 L 6 6.940001 C 4.71 7.619999 3.93 8.98 4 10.43 C 4.07 11.85 4.93 13.1 6.22 13.68 C 6.25 13.69 7.42 14.18 7.42 14.18 L 6 14.93 C 4.17 15.9 3.47 18.17 4.44 20 C 5.41 21.83 7.68 22.530001 9.51 21.559999 L 18.01 17.059999 C 19.299999 16.379999 20.07 15.02 20 13.57 C 19.93 12.15 19.059999 10.89 17.77 10.32 Z M 17.540001 16.18 L 9.04 20.68 C 7.7 21.389999 6.03 20.879999 5.32 19.540001 C 4.61 18.200001 5.12 16.530001 6.46 15.82 L 8.5 14.74 L 8.5 13.53 L 7.81 13.25 L 6.7 12.79 C 5.71 12.38 5.05 11.44 5 10.38 C 4.95 9.32 5.52 8.32 6.46 7.82 L 14.96 3.32 C 16.299999 2.610001 17.969999 3.119999 18.68 4.459999 C 19.389999 5.799999 18.879999 7.469999 17.540001 8.18 L 15.5 9.26 L 15.5 10.47 L 17.299999 11.21 C 18.290001 11.62 18.950001 12.56 19 13.62 C 19.049999 14.68 18.48 15.68 17.540001 16.18 Z"/>
</svg>
