<?xml version="1.0" encoding="UTF-8"?>
<!-- Generated by Pixelmator Pro 2.4.2 -->
<svg width="24" height="24" viewBox="0 0 24 24" xmlns="http://www.w3.org/2000/svg" xmlns:xlink="http://www.w3.org/1999/xlink">
    <path id="Path" fill="#929292" stroke="none" d="M 10 9.35 L 15 12 L 10 14.65 Z M 12 7 C 9.238576 7 7 9.238576 7 12 C 7 14.761424 9.238576 17 12 17 C 14.761424 17 17 14.761424 17 12 C 17 9.238576 14.761424 7 12 7 M 12 6 C 15.313708 6 18 8.686292 18 12 C 18 15.313708 15.313708 18 12 18 C 8.686292 18 6 15.313708 6 12 C 6 8.686292 8.686292 6 12 6 Z M 12 3 C 7.029437 3 3 7.029438 3 12 C 3 16.970562 7.029437 21 12 21 C 16.970562 21 21 16.970562 21 12 C 21 7.029438 16.970562 3 12 3 M 12 2 C 17.522848 2 22 6.477152 22 12 C 22 17.522848 17.522848 22 12 22 C 6.477152 22 2 17.522848 2 12 C 2 6.477152 6.477152 2 12 2 Z"/>
</svg>
